<?xml version="1.0" encoding="utf-8"?>
<!-- Generator: Adobe Illustrator 22.1.0, SVG Export Plug-In . SVG Version: 6.00 Build 0)  -->
<svg version="1.1" id="Layer_1" xmlns="http://www.w3.org/2000/svg" xmlns:xlink="http://www.w3.org/1999/xlink" x="0px" y="0px"
	 viewBox="0 0 512 512" style="enable-background:new 0 0 512 512;" xml:space="preserve">
<g>
	<path d="M404.1,235.4l-3.3-5.7c0.1-40.8-18.8-57.4-40.9-70c6.7-1.8,13.5-3.2,15.5-11.6c11.5-2.9,13.9-8.3,15-13.9
		c3-2,13-7.6,11.9-17.3c5.6-3.9,8.8-8.9,7.1-15.9c6.1-6.6,7.6-12,5.1-17c7.3-9.1,4-13.7,1-18.4c5.4-9.8,0.6-20.4-14.6-18.6
		c-6.1-8.9-19.2-6.9-21.3-6.9c-2.3-2.8-5.3-5.3-14.5-4.1c-6-5.4-12.7-4.4-19.6-1.8c-8.2-6.4-13.6-1.2-19.9,0.7
		c-9.9-3.2-12.2,1.1-17,3c-10.8-2.3-14.1,2.6-19.3,7.8l-6.1-0.1C267,55,258.9,74.4,256,84.3c-2.9-9.9-11-29.3-27.3-38.7l-6.1,0.1
		c-5.2-5.2-8.5-10.1-19.3-7.8c-4.9-1.8-7.1-6.2-17-3c-4-1.2-7.8-3.9-12.2-3.8c-2.3,0.1-4.8,0.9-7.6,3.1c-6.9-2.6-13.6-3.5-19.6,1.8
		c-9.2-1.1-12.3,1.2-14.5,4.1c-2,0-15.2-2-21.3,6.9c-15.2-1.8-19.9,8.8-14.5,18.6c-3.1,4.7-6.3,9.4,1,18.4c-2.5,5-1,10.5,5.1,17
		c-1.6,7,1.6,12,7.1,15.9c-1.1,9.7,9,15.3,11.9,17.3c1.1,5.6,3.5,10.9,15,13.9c1.9,8.3,8.8,9.8,15.5,11.6
		c-22.1,12.7-40.9,29.3-40.9,70l-3.3,5.7C82.7,250.5,60,299.3,95.6,338.8c2.3,12.4,6.2,21.3,9.7,31.1c5.2,39.7,39.1,58.3,48,60.5
		c13.1,9.8,27.1,19.2,45.9,25.7c17.8,18.1,37.2,25,56.5,25h0.9c19.4,0,38.7-6.9,56.4-25c18.9-6.5,32.8-15.8,45.9-25.7
		c9-2.2,42.8-20.7,48-60.5c3.4-9.8,7.4-18.7,9.7-31.1C452,299.2,429.3,250.5,404.1,235.4L404.1,235.4z M384.6,228.4
		c-1.3,16.4-86.9-57.2-72.1-59.7C352.6,162.1,385.9,185.6,384.6,228.4z M346.8,310.2c-21.5,13.9-52.5,4.9-69.2-20
		c-16.7-25-12.8-56.4,8.7-70.3s52.5-4.9,69.2,20S368.3,296.3,346.8,310.2L346.8,310.2z M287.1,56.9c0.7,3.7,1.6,6,2.5,6.7
		c4.7-5.1,8.6-10.3,14.8-15.2c0,2.9-1.5,6,2.2,8.3c3.3-4.4,7.7-8.3,13.6-11.7c-2.8,4.9-0.5,6.4,1.1,8.4c4.5-3.9,8.8-7.7,17-10.8
		c-2.3,2.7-5.4,5.4-2.1,8.6c4.7-2.9,9.3-5.8,20.3-7.8c-2.5,2.7-7.6,5.5-4.5,8.3c5.8-2.2,12.3-3.9,19.4-4.7c-3.4,2.8-6.2,5.5-3.4,7.7
		c6.2-1.9,14.8-4.5,23.2-2.3l-5.3,5.4c-0.6,0.7,12.4,0.5,21,0.7c-3.2,4.4-6.3,8.5-8.2,16c0.9,0.9,5.1,0.4,9.1,0
		c-4.1,8.7-11.2,10.8-12.9,14.6c2.5,1.9,6,1.4,9.8,0.1c-3,6.1-9.1,10.3-14.1,15.2c1.2,0.9,3.4,1.4,8.5,0.8
		c-4.6,4.8-10,9.2-16.5,13.2c1.1,1.3,5.1,1.3,8.8,1.4c-5.9,5.7-13.4,8.7-20.6,12.5c3.5,2.4,6.1,1.8,8.8,1.8
		c-5,4.1-13.5,6.2-21.4,8.8c1.5,2.4,3,3,6.2,3.6c-8.3,4.7-20.4,2.5-23.7,4.9c0.8,2.4,3.2,3.9,5.9,5.1c-13.5,0.8-50.3-0.5-57.5-28.4
		c13.8-15.2,39-32.9,82.3-55c-33.7,11.2-64.1,26.4-89.6,47C251.9,106,272.5,70.8,287.1,56.9L287.1,56.9z M256.9,157.6
		c21.3-0.3,47.5,15.6,47.4,30.5c-0.1,13.2-18.5,23.8-47.3,23.6c-28.2-0.4-47.2-13.4-47.1-26.2C210,175,233,156.9,256.9,157.6
		L256.9,157.6z M148.8,146.3c3.3-0.6,4.7-1.3,6.2-3.6c-7.9-2.5-16.4-4.7-21.4-8.8c2.7,0,5.3,0.6,8.8-1.8
		c-7.1-3.8-14.7-6.8-20.6-12.5c3.7-0.1,7.6,0,8.8-1.4c-6.5-4-11.9-8.3-16.5-13.2c5.1,0.6,7.3,0.1,8.5-0.8
		c-4.9-4.9-11.2-9.1-14.1-15.2c3.8,1.3,7.3,1.8,9.8-0.1c-1.7-3.7-8.8-5.9-12.9-14.6c4,0.4,8.3,0.9,9.1,0c-1.8-7.5-5.1-11.7-8.2-16
		c8.6-0.1,21.6,0,21-0.7l-5.3-5.4c8.3-2.2,17,0.4,23.2,2.3c2.8-2.2-0.1-4.9-3.4-7.7c7.1,1,13.5,2.5,19.4,4.7c3.1-2.7-2-5.5-4.5-8.3
		c11,2,15.6,4.9,20.3,7.8c3.3-3.2,0.2-5.9-2.1-8.6c8.3,3,12.6,6.9,17,10.8c1.5-2,3.9-3.5,1.1-8.4c5.9,3.3,10.4,7.3,13.6,11.7
		c3.6-2.3,2.2-5.4,2.2-8.3c6.2,4.9,10,10.1,14.8,15.2c1-0.7,1.8-3,2.5-6.7c14.6,14,35.2,49.1,5.3,63.1c-25.5-20.6-55.9-35.8-89.6-47
		c43.3,22,68.5,39.8,82.3,55c-7,27.9-43.9,29.2-57.5,28.4c2.7-1.2,5.1-2.8,5.9-5.1C169.2,148.8,157.2,150.9,148.8,146.3L148.8,146.3
		z M201.6,167.5c14.8,2.5-70.8,76-72.1,59.7C128.2,184.4,161.6,160.8,201.6,167.5L201.6,167.5z M110.8,331.6
		c-20.8-16.5-27.5-64.8,11.1-86.4C145.1,239.1,129.7,340,110.8,331.6z M190.7,417.9c-11.7,6.9-40.2,4.1-60.5-24.5
		c-13.6-24.1-11.9-48.5-2.3-55.7c14.3-8.6,36.5,3,53.5,22.5C196.3,377.8,203.1,408.8,190.7,417.9z M167.5,312.7
		c-21.5-13.9-25.4-45.3-8.7-70.3s47.7-33.9,69.2-20s25.4,45.3,8.7,70.3C220,317.7,189,326.6,167.5,312.7z M257.3,466.9
		c-25.8,1.1-51.1-20.8-50.8-28.4c-0.4-11.2,31.5-19.9,52.1-19.3c20.8-0.9,48.9,6.6,48.9,16.6C308,445.5,282.3,467.4,257.3,466.9
		L257.3,466.9z M309.1,357.2c0.2,26.1-23,47.3-51.7,47.4c-28.6,0.2-52-20.9-52.2-46.9v-0.5c-0.2-26.1,23-47.3,51.7-47.4
		c28.6-0.2,52,20.9,52.2,46.9V357.2z M381.3,394.7c-22.2,30.4-52.4,31.5-63.5,23.1c-11.7-10.9-2.8-44.7,13.3-63.3
		c18.4-20.5,38-33.8,51.8-23.4C392,340.2,397.5,374.3,381.3,394.7L381.3,394.7z M401.4,330.4c-18.9,8.3-34.3-92.5-11.1-86.4
		C428.9,265.7,422.3,314,401.4,330.4z"/>
</g>
</svg>
